<svg xmlns:dc="http://purl.org/dc/elements/1.1/" xmlns:cc="http://creativecommons.org/ns#" xmlns:rdf="http://www.w3.org/1999/02/22-rdf-syntax-ns#" xmlns:svg="http://www.w3.org/2000/svg" xmlns="http://www.w3.org/2000/svg" xmlns:sodipodi="http://sodipodi.sourceforge.net/DTD/sodipodi-0.dtd" xmlns:inkscape="http://www.inkscape.org/namespaces/inkscape" version="1.1" x="0px" y="0px" viewBox="0 0 100 125"><g transform="translate(0,-952.36218)"><path d="m 87,956.56922 c 4.93411,0 9,4.0659 9,9 l 0,39.99988 c 0,4.9341 -4.06589,9 -9,9 l -5.65625,0 L 83,1031.2566 a 3.0003,3.0003 0 0 1 -5.125,2.4375 l -19.125,-19.125 -4.6875,0 0,15.9688 c 0,4.0756 -3.28877,7.5134 -7.375,7.5312 l -17.4375,0.094 -10.1875,9.2188 c -0.892871,0.8098 -2.299549,1.0132 -3.375,0.4687 -1.075451,-0.5444 -1.749089,-1.801 -1.625,-3 l 0.65625,-6.6875 -3.3125,0 c -4.1020095,0 -7.4062505,-3.4869 -7.4062505,-7.5625 l 0,-28.4374 c 0,-4.07558 3.28191,-7.55238 7.3750005,-7.56248 l 8.625,0 0,-29.0313 c 0,-4.9341 4.065889,-9 9,-9 l 58,0 z m 0,6 -58,0 c -1.71391,0 -3,1.2861 -3,3 l 0,29 20.65625,-0.031 c 4.11025,-0.01 7.40625,3.4556 7.40625,7.53118 l 0,6.5 5.9375,0 a 3.0003,3.0003 0 0 1 2.125,0.875 L 76.15625,1023.4756 75,1011.8506 a 3.0003,3.0003 0 0 1 3,-3.2812 l 9,0 c 1.713909,0 3,-1.2861 3,-3 l 0,-39.99998 c 0,-1.7139 -1.286091,-3 -3,-3 z m -40.34375,37.96868 -35.25,0.062 c -0.774169,0 -1.4062505,0.5947 -1.4062505,1.5625 l 0,28.4375 c 0,0.9676 0.6409805,1.5625 1.4062505,1.5625 l 6.65625,0 c 1.670109,0.01 3.142561,1.6514 2.96875,3.3125 l -0.21875,2.2187 5.25,-4.75 c 0.541341,-0.4926 1.268061,-0.7765 2,-0.7812 l 18.59375,-0.094 c 0.78101,0 1.40625,-0.5636 1.40625,-1.5313 l 0,-28.4687 c 0,-0.9678 -0.64924,-1.533 -1.40625,-1.5312 z" style="text-indent:0;text-transform:none;direction:ltr;block-progression:tb;baseline-shift:baseline;color:#000000;enable-background:accumulate;" fill="#333" fill-opacity="1" stroke="none" marker="none" visibility="visible" display="inline" overflow="visible"/></g><text x="0" y="115" fill="#000000" font-size="5px" font-weight="bold" font-family="'Helvetica Neue', Helvetica, Arial-Unicode, Arial, Sans-serif">Created by iconsphere</text><text x="0" y="120" fill="#000000" font-size="5px" font-weight="bold" font-family="'Helvetica Neue', Helvetica, Arial-Unicode, Arial, Sans-serif">from the Noun Project</text></svg>